<svg width="578" height="578" viewBox="0 0 578 578" fill="none" xmlns="http://www.w3.org/2000/svg">
<g id="programmeuse" clip-path="url(#clip0_2:169)">
<path id="Vector" d="M578 289C578.1 357.219 553.97 423.257 509.91 475.34C508.31 477.24 506.68 479.11 505.02 480.97C485.485 502.94 462.729 521.818 437.53 536.96C431.75 540.43 425.843 543.7 419.81 546.77C419.2 547.08 418.58 547.39 417.97 547.69C417.24 548.06 416.5 548.42 415.76 548.78C400.493 556.253 384.59 562.35 368.24 567C366.54 567.48 364.837 567.947 363.13 568.4C341.623 574.091 319.529 577.275 297.29 577.89C296.13 577.92 294.99 577.94 293.89 577.96C293.5 577.97 293.12 577.98 292.74 577.98C291.49 577.99 290.25 578 289 578C265.564 578.017 242.213 575.187 219.46 569.57C217.18 569.01 214.91 568.42 212.65 567.8C200.746 564.55 189.064 560.532 177.68 555.77C171.68 553.27 165.787 550.573 160 547.68C158.69 547.02 157.38 546.36 156.09 545.68C155.54 545.41 155 545.12 154.46 544.84C123.618 528.562 95.9603 506.862 72.81 480.78C71.21 478.99 69.64 477.17 68.09 475.34C42.5827 445.097 23.5559 409.94 12.1881 372.045C0.820227 334.15 -2.64662 294.325 2.00225 255.036C6.65112 215.747 19.3167 177.831 39.2146 143.636C59.1125 109.441 85.819 79.6945 117.68 56.24C119.32 55.03 120.97 53.83 122.64 52.66C122.97 52.43 123.3 52.2 123.63 51.97C152.973 31.416 185.908 16.5426 220.73 8.11998C222.71 7.62998 224.69 7.16999 226.69 6.73999C264.407 -1.51031 303.387 -2.19352 341.37 4.72998C343.36 5.09998 345.35 5.47999 347.33 5.88999C381.841 12.9685 414.755 26.3342 444.43 45.32C445.09 45.74 445.75 46.16 446.41 46.6C447.74 47.46 449.07 48.34 450.38 49.23C489.691 75.6583 521.894 111.354 544.151 153.168C566.407 194.983 578.032 241.631 578 289V289Z" fill="url(#paint0_linear_2:169)"/>
<g id="programmeuse_2">
<path id="Vector_2" d="M216 438.51L123.63 446.71L122.64 446.8V52.66C122.97 52.43 123.3 52.2 123.63 51.97C142.881 38.5047 163.705 27.4427 185.64 19.03L190.36 84.13L190.79 90.09L195.46 154.65L196.9 174.51L215.83 436.21L216 438.51Z" fill="#CCCCCC"/>
<path id="Vector_3" d="M444.43 45.32C445.09 45.74 445.75 46.16 446.41 46.6V446.8L444.43 446.62L353.06 438.51L353.23 436.21L372.16 174.51L373.6 154.65L378.27 90.09L378.7 84.13L383.65 15.86C404.997 23.2593 425.397 33.1475 444.43 45.32V45.32Z" fill="#CCCCCC"/>
<path id="Vector_4" d="M444.43 45.3201V452.26C444.43 460.07 439.05 466.42 432.43 466.42H135.63C130.15 466.42 125.5 462.06 124.09 456.11C123.782 454.85 123.628 453.557 123.63 452.26V51.9701C123.3 52.2001 122.97 52.4301 122.64 52.6601C120.97 53.8301 119.32 55.0301 117.68 56.2401V452.26C117.591 458.192 119.807 463.928 123.86 468.26C125.985 470.487 128.674 472.097 131.64 472.92C132.94 473.274 134.282 473.452 135.63 473.45H432.43C433.781 473.451 435.126 473.273 436.43 472.92C444.41 470.77 450.38 462.33 450.38 452.26V49.2301C449.07 48.3401 447.74 47.4601 446.41 46.6001C445.75 46.1601 445.09 45.7401 444.43 45.3201Z" fill="#CCCCCC"/>
<path id="Vector_5" d="M447.407 84.134H120.655V90.093H447.407V84.134Z" fill="#CCCCCC"/>
<path id="Vector_6" d="M220.73 8.11998C222.71 7.62998 224.69 7.16999 226.69 6.73999V168.55H220.73V8.11998Z" fill="#CCCCCC"/>
<path id="Vector_7" d="M341.37 4.72998C343.36 5.09998 345.35 5.47998 347.33 5.88998V168.55H341.37V4.72998Z" fill="#CCCCCC"/>
<path id="Vector_8" d="M484.65 436.21H93.34C86.2269 436.21 79.4052 439.036 74.3754 444.065C69.3457 449.095 66.52 455.917 66.52 463.03C66.52 470.143 69.3457 476.965 74.3754 481.995C79.4052 487.024 86.2269 489.85 93.34 489.85H484.65C488.459 489.851 492.224 489.039 495.694 487.467C499.163 485.896 502.258 483.603 504.77 480.74C505.907 479.446 506.919 478.046 507.79 476.56C508.465 475.42 509.05 474.23 509.54 473C511.174 468.931 511.784 464.524 511.318 460.164C510.852 455.804 509.324 451.626 506.867 447.994C504.41 444.363 501.1 441.389 497.226 439.335C493.353 437.28 489.035 436.207 484.65 436.21V436.21Z" fill="#CCCCCC"/>
<path id="Vector_9" d="M447.407 154.649H122.642V174.512H447.407V154.649Z" fill="#CCCCCC"/>
<path id="Vector_10" d="M282.045 148.69H288.004C289.439 148.69 290.859 148.973 292.185 149.522C293.51 150.071 294.715 150.875 295.729 151.89C296.743 152.904 297.548 154.109 298.097 155.434C298.646 156.759 298.929 158.18 298.929 159.615V159.615H271.12C271.12 156.717 272.271 153.939 274.32 151.89C276.369 149.841 279.147 148.69 282.045 148.69H282.045Z" fill="#CCCCCC"/>
<path id="Vector_11" d="M509.91 475.34C501.223 485.634 491.826 495.307 481.79 504.29H96.21C86.1735 495.307 76.7772 485.634 68.09 475.34H509.91Z" fill="#3F3D56"/>
<path id="Vector_12" d="M321.28 375.07H256.36C256.01 375.066 255.662 375.12 255.33 375.23C254.625 375.448 254.009 375.886 253.572 376.48C253.134 377.074 252.899 377.792 252.9 378.53V481.09H324.75V378.53C324.75 378.075 324.659 377.624 324.485 377.204C324.31 376.784 324.054 376.402 323.732 376.081C323.41 375.759 323.027 375.505 322.607 375.331C322.186 375.158 321.735 375.069 321.28 375.07ZM296.71 425.67C296.712 427.334 296.164 428.951 295.15 430.27C294.183 431.55 292.838 432.494 291.305 432.969C289.773 433.445 288.13 433.427 286.608 432.919C285.086 432.411 283.762 431.438 282.822 430.138C281.882 428.837 281.375 427.274 281.37 425.67V413.77C281.389 411.748 282.205 409.815 283.641 408.392C285.078 406.969 287.018 406.171 289.04 406.171C291.062 406.171 293.002 406.969 294.439 408.392C295.875 409.815 296.691 411.748 296.71 413.77V425.67Z" fill="#2F2E41"/>
<path id="Vector_13" d="M252.68 477.81V487.7C252.68 488.213 252.883 488.705 253.245 489.068C253.606 489.432 254.097 489.638 254.61 489.64H323.04C323.552 489.636 324.042 489.43 324.404 489.067C324.765 488.703 324.968 488.212 324.97 487.7V477.81H252.68Z" fill="#3F3D56"/>
<path id="Vector_14" d="M428.78 215.02H151.28C148.896 215.023 146.61 215.971 144.923 217.656C143.236 219.341 142.286 221.626 142.28 224.01V411.27C142.282 413.656 143.231 415.945 144.918 417.632C146.606 419.319 148.894 420.268 151.28 420.27H428.78C431.166 420.268 433.454 419.319 435.142 417.632C436.829 415.945 437.778 413.656 437.78 411.27V224.01C437.774 221.626 436.824 219.341 435.137 217.656C433.45 215.971 431.164 215.023 428.78 215.02V215.02Z" fill="#3F3D56"/>
<path id="Vector_15" d="M426.46 221.52H153.59C152.313 221.523 151.09 222.032 150.188 222.935C149.287 223.839 148.78 225.063 148.78 226.34V408.96C148.782 410.235 149.29 411.457 150.191 412.359C151.093 413.26 152.315 413.768 153.59 413.77H426.46C427.735 413.768 428.957 413.26 429.859 412.359C430.76 411.457 431.268 410.235 431.27 408.96V226.34C431.27 225.063 430.763 223.839 429.862 222.935C428.96 222.032 427.737 221.523 426.46 221.52V221.52Z" fill="#6C63FF"/>
<path id="Vector_16" d="M376.24 489.48L373.72 477.51C373.616 477.022 373.391 476.568 373.066 476.189C372.741 475.81 372.326 475.518 371.86 475.34C371.522 475.208 371.163 475.14 370.8 475.14H213.49C213.127 475.14 212.768 475.208 212.43 475.34C211.964 475.518 211.549 475.81 211.224 476.189C210.899 476.568 210.674 477.022 210.57 477.51L208.05 489.48C207.959 489.915 207.966 490.364 208.07 490.795C208.175 491.227 208.374 491.63 208.654 491.975C208.933 492.319 209.286 492.597 209.687 492.789C210.088 492.98 210.526 493.079 210.97 493.08H373.31C373.755 493.082 374.196 492.984 374.597 492.791C374.999 492.599 375.352 492.318 375.63 491.97C375.91 491.626 376.11 491.225 376.216 490.794C376.321 490.363 376.33 489.914 376.24 489.48V489.48Z" fill="#2F2E41"/>
<path id="Vector_17" d="M219.155 477.296H215.131C214.862 477.296 214.643 477.514 214.643 477.784V479.808C214.643 480.077 214.862 480.296 215.131 480.296H219.155C219.424 480.296 219.643 480.077 219.643 479.808V477.784C219.643 477.514 219.424 477.296 219.155 477.296Z" fill="#3F3D56"/>
<path id="Vector_18" d="M229.155 477.296H225.131C224.862 477.296 224.643 477.514 224.643 477.784V479.808C224.643 480.077 224.862 480.296 225.131 480.296H229.155C229.424 480.296 229.643 480.077 229.643 479.808V477.784C229.643 477.514 229.424 477.296 229.155 477.296Z" fill="#3F3D56"/>
<path id="Vector_19" d="M239.155 477.296H235.131C234.862 477.296 234.643 477.514 234.643 477.784V479.808C234.643 480.077 234.862 480.296 235.131 480.296H239.155C239.424 480.296 239.643 480.077 239.643 479.808V477.784C239.643 477.514 239.424 477.296 239.155 477.296Z" fill="#3F3D56"/>
<path id="Vector_20" d="M249.155 477.296H245.131C244.862 477.296 244.643 477.514 244.643 477.784V479.808C244.643 480.077 244.862 480.296 245.131 480.296H249.155C249.424 480.296 249.643 480.077 249.643 479.808V477.784C249.643 477.514 249.424 477.296 249.155 477.296Z" fill="#3F3D56"/>
<path id="Vector_21" d="M259.155 477.296H255.131C254.862 477.296 254.643 477.514 254.643 477.784V479.808C254.643 480.077 254.862 480.296 255.131 480.296H259.155C259.424 480.296 259.643 480.077 259.643 479.808V477.784C259.643 477.514 259.424 477.296 259.155 477.296Z" fill="#3F3D56"/>
<path id="Vector_22" d="M269.155 477.296H265.131C264.862 477.296 264.643 477.514 264.643 477.784V479.808C264.643 480.077 264.862 480.296 265.131 480.296H269.155C269.424 480.296 269.643 480.077 269.643 479.808V477.784C269.643 477.514 269.424 477.296 269.155 477.296Z" fill="#3F3D56"/>
<path id="Vector_23" d="M279.155 477.296H275.131C274.862 477.296 274.643 477.514 274.643 477.784V479.808C274.643 480.077 274.862 480.296 275.131 480.296H279.155C279.424 480.296 279.643 480.077 279.643 479.808V477.784C279.643 477.514 279.424 477.296 279.155 477.296Z" fill="#3F3D56"/>
<path id="Vector_24" d="M289.155 477.296H285.131C284.862 477.296 284.643 477.514 284.643 477.784V479.808C284.643 480.077 284.862 480.296 285.131 480.296H289.155C289.424 480.296 289.643 480.077 289.643 479.808V477.784C289.643 477.514 289.424 477.296 289.155 477.296Z" fill="#3F3D56"/>
<path id="Vector_25" d="M299.155 477.296H295.131C294.862 477.296 294.643 477.514 294.643 477.784V479.808C294.643 480.077 294.862 480.296 295.131 480.296H299.155C299.424 480.296 299.643 480.077 299.643 479.808V477.784C299.643 477.514 299.424 477.296 299.155 477.296Z" fill="#3F3D56"/>
<path id="Vector_26" d="M309.155 477.296H305.131C304.862 477.296 304.643 477.514 304.643 477.784V479.808C304.643 480.077 304.862 480.296 305.131 480.296H309.155C309.424 480.296 309.643 480.077 309.643 479.808V477.784C309.643 477.514 309.424 477.296 309.155 477.296Z" fill="#3F3D56"/>
<path id="Vector_27" d="M319.155 477.296H315.131C314.862 477.296 314.643 477.514 314.643 477.784V479.808C314.643 480.077 314.862 480.296 315.131 480.296H319.155C319.424 480.296 319.643 480.077 319.643 479.808V477.784C319.643 477.514 319.424 477.296 319.155 477.296Z" fill="#3F3D56"/>
<path id="Vector_28" d="M329.155 477.296H325.131C324.862 477.296 324.643 477.514 324.643 477.784V479.808C324.643 480.077 324.862 480.296 325.131 480.296H329.155C329.424 480.296 329.643 480.077 329.643 479.808V477.784C329.643 477.514 329.424 477.296 329.155 477.296Z" fill="#3F3D56"/>
<path id="Vector_29" d="M339.155 477.296H335.131C334.862 477.296 334.643 477.514 334.643 477.784V479.808C334.643 480.077 334.862 480.296 335.131 480.296H339.155C339.424 480.296 339.643 480.077 339.643 479.808V477.784C339.643 477.514 339.424 477.296 339.155 477.296Z" fill="#3F3D56"/>
<path id="Vector_30" d="M349.155 477.296H345.131C344.862 477.296 344.643 477.514 344.643 477.784V479.808C344.643 480.077 344.862 480.296 345.131 480.296H349.155C349.424 480.296 349.643 480.077 349.643 479.808V477.784C349.643 477.514 349.424 477.296 349.155 477.296Z" fill="#3F3D56"/>
<path id="Vector_31" d="M359.155 477.296H355.131C354.862 477.296 354.643 477.514 354.643 477.784V479.808C354.643 480.077 354.862 480.296 355.131 480.296H359.155C359.424 480.296 359.643 480.077 359.643 479.808V477.784C359.643 477.514 359.424 477.296 359.155 477.296Z" fill="#3F3D56"/>
<path id="Vector_32" d="M369.155 477.296H365.131C364.862 477.296 364.643 477.514 364.643 477.784V479.808C364.643 480.077 364.862 480.296 365.131 480.296H369.155C369.424 480.296 369.643 480.077 369.643 479.808V477.784C369.643 477.514 369.424 477.296 369.155 477.296Z" fill="#3F3D56"/>
<path id="Vector_33" d="M219.037 482.296H215.013C214.743 482.296 214.525 482.514 214.525 482.784V484.808C214.525 485.077 214.743 485.296 215.013 485.296H219.037C219.306 485.296 219.525 485.077 219.525 484.808V482.784C219.525 482.514 219.306 482.296 219.037 482.296Z" fill="#3F3D56"/>
<path id="Vector_34" d="M229.037 482.296H225.013C224.743 482.296 224.525 482.514 224.525 482.784V484.808C224.525 485.077 224.743 485.296 225.013 485.296H229.037C229.306 485.296 229.525 485.077 229.525 484.808V482.784C229.525 482.514 229.306 482.296 229.037 482.296Z" fill="#3F3D56"/>
<path id="Vector_35" d="M239.037 482.296H235.013C234.743 482.296 234.525 482.514 234.525 482.784V484.808C234.525 485.077 234.743 485.296 235.013 485.296H239.037C239.306 485.296 239.525 485.077 239.525 484.808V482.784C239.525 482.514 239.306 482.296 239.037 482.296Z" fill="#3F3D56"/>
<path id="Vector_36" d="M249.037 482.296H245.013C244.743 482.296 244.525 482.514 244.525 482.784V484.808C244.525 485.077 244.743 485.296 245.013 485.296H249.037C249.306 485.296 249.525 485.077 249.525 484.808V482.784C249.525 482.514 249.306 482.296 249.037 482.296Z" fill="#3F3D56"/>
<path id="Vector_37" d="M259.037 482.296H255.013C254.743 482.296 254.525 482.514 254.525 482.784V484.808C254.525 485.077 254.743 485.296 255.013 485.296H259.037C259.306 485.296 259.525 485.077 259.525 484.808V482.784C259.525 482.514 259.306 482.296 259.037 482.296Z" fill="#3F3D56"/>
<path id="Vector_38" d="M269.037 482.296H265.013C264.743 482.296 264.525 482.514 264.525 482.784V484.808C264.525 485.077 264.743 485.296 265.013 485.296H269.037C269.306 485.296 269.525 485.077 269.525 484.808V482.784C269.525 482.514 269.306 482.296 269.037 482.296Z" fill="#3F3D56"/>
<path id="Vector_39" d="M279.037 482.296H275.013C274.743 482.296 274.525 482.514 274.525 482.784V484.808C274.525 485.077 274.743 485.296 275.013 485.296H279.037C279.306 485.296 279.525 485.077 279.525 484.808V482.784C279.525 482.514 279.306 482.296 279.037 482.296Z" fill="#3F3D56"/>
<path id="Vector_40" d="M289.037 482.296H285.013C284.743 482.296 284.525 482.514 284.525 482.784V484.808C284.525 485.077 284.743 485.296 285.013 485.296H289.037C289.306 485.296 289.525 485.077 289.525 484.808V482.784C289.525 482.514 289.306 482.296 289.037 482.296Z" fill="#3F3D56"/>
<path id="Vector_41" d="M299.037 482.296H295.013C294.743 482.296 294.525 482.514 294.525 482.784V484.808C294.525 485.077 294.743 485.296 295.013 485.296H299.037C299.306 485.296 299.525 485.077 299.525 484.808V482.784C299.525 482.514 299.306 482.296 299.037 482.296Z" fill="#3F3D56"/>
<path id="Vector_42" d="M309.037 482.296H305.013C304.743 482.296 304.525 482.514 304.525 482.784V484.808C304.525 485.077 304.743 485.296 305.013 485.296H309.037C309.306 485.296 309.525 485.077 309.525 484.808V482.784C309.525 482.514 309.306 482.296 309.037 482.296Z" fill="#3F3D56"/>
<path id="Vector_43" d="M319.037 482.296H315.013C314.743 482.296 314.525 482.514 314.525 482.784V484.808C314.525 485.077 314.743 485.296 315.013 485.296H319.037C319.306 485.296 319.525 485.077 319.525 484.808V482.784C319.525 482.514 319.306 482.296 319.037 482.296Z" fill="#3F3D56"/>
<path id="Vector_44" d="M329.037 482.296H325.013C324.743 482.296 324.525 482.514 324.525 482.784V484.808C324.525 485.077 324.743 485.296 325.013 485.296H329.037C329.306 485.296 329.525 485.077 329.525 484.808V482.784C329.525 482.514 329.306 482.296 329.037 482.296Z" fill="#3F3D56"/>
<path id="Vector_45" d="M339.037 482.296H335.013C334.743 482.296 334.525 482.514 334.525 482.784V484.808C334.525 485.077 334.743 485.296 335.013 485.296H339.037C339.306 485.296 339.525 485.077 339.525 484.808V482.784C339.525 482.514 339.306 482.296 339.037 482.296Z" fill="#3F3D56"/>
<path id="Vector_46" d="M349.037 482.296H345.013C344.743 482.296 344.525 482.514 344.525 482.784V484.808C344.525 485.077 344.743 485.296 345.013 485.296H349.037C349.306 485.296 349.525 485.077 349.525 484.808V482.784C349.525 482.514 349.306 482.296 349.037 482.296Z" fill="#3F3D56"/>
<path id="Vector_47" d="M359.037 482.296H355.013C354.743 482.296 354.525 482.514 354.525 482.784V484.808C354.525 485.077 354.743 485.296 355.013 485.296H359.037C359.306 485.296 359.525 485.077 359.525 484.808V482.784C359.525 482.514 359.306 482.296 359.037 482.296Z" fill="#3F3D56"/>
<path id="Vector_48" d="M369.037 482.296H365.013C364.743 482.296 364.525 482.514 364.525 482.784V484.808C364.525 485.077 364.743 485.296 365.013 485.296H369.037C369.306 485.296 369.525 485.077 369.525 484.808V482.784C369.525 482.514 369.306 482.296 369.037 482.296Z" fill="#3F3D56"/>
<path id="Vector_49" d="M302.037 488.296H263.013C262.743 488.296 262.525 488.514 262.525 488.784V490.808C262.525 491.077 262.743 491.296 263.013 491.296H302.037C302.306 491.296 302.525 491.077 302.525 490.808V488.784C302.525 488.514 302.306 488.296 302.037 488.296Z" fill="#3F3D56"/>
<path id="Vector_50" d="M412.748 246.677H157.425C157.159 246.671 156.907 246.561 156.721 246.372C156.535 246.182 156.431 245.927 156.431 245.661C156.431 245.396 156.535 245.141 156.721 244.951C156.907 244.761 157.159 244.652 157.425 244.646H412.748C413.014 244.652 413.266 244.761 413.452 244.951C413.637 245.141 413.741 245.396 413.741 245.661C413.741 245.927 413.637 246.182 413.452 246.372C413.266 246.561 413.014 246.671 412.748 246.677V246.677Z" fill="#3F3D56"/>
<path id="Vector_51" d="M174.805 239.462C178.091 239.462 180.755 236.738 180.755 233.379C180.755 230.019 178.091 227.296 174.805 227.296C171.519 227.296 168.855 230.019 168.855 233.379C168.855 236.738 171.519 239.462 174.805 239.462Z" fill="#3F3D56"/>
<path id="Vector_52" d="M195.361 239.462C198.647 239.462 201.311 236.738 201.311 233.379C201.311 230.019 198.647 227.296 195.361 227.296C192.075 227.296 189.411 230.019 189.411 233.379C189.411 236.738 192.075 239.462 195.361 239.462Z" fill="#3F3D56"/>
<path id="Vector_53" d="M215.917 239.462C219.203 239.462 221.867 236.738 221.867 233.379C221.867 230.019 219.203 227.296 215.917 227.296C212.631 227.296 209.967 230.019 209.967 233.379C209.967 236.738 212.631 239.462 215.917 239.462Z" fill="#3F3D56"/>
<path id="Vector_54" d="M400.37 228.8H385.77C385.481 228.807 385.207 228.926 385.005 229.133C384.803 229.339 384.69 229.616 384.69 229.905C384.69 230.194 384.803 230.471 385.005 230.677C385.207 230.884 385.481 231.003 385.77 231.01H400.37C400.66 231.006 400.937 230.888 401.141 230.681C401.345 230.474 401.46 230.195 401.46 229.905C401.46 229.615 401.345 229.336 401.141 229.129C400.937 228.922 400.66 228.804 400.37 228.8Z" fill="#3F3D56"/>
<path id="Vector_55" d="M400.37 232.95H385.77C385.481 232.956 385.206 233.076 385.004 233.282C384.802 233.489 384.689 233.766 384.689 234.055C384.689 234.344 384.802 234.621 385.004 234.828C385.206 235.034 385.481 235.154 385.77 235.16H400.37C400.661 235.156 400.938 235.038 401.143 234.832C401.347 234.625 401.462 234.346 401.462 234.055C401.462 233.764 401.347 233.485 401.143 233.278C400.938 233.071 400.661 232.953 400.37 232.95V232.95Z" fill="#3F3D56"/>
<path id="Vector_56" d="M400.37 237.1H385.77C385.481 237.107 385.207 237.226 385.005 237.433C384.803 237.639 384.69 237.916 384.69 238.205C384.69 238.494 384.803 238.771 385.005 238.977C385.207 239.184 385.481 239.303 385.77 239.31H400.37C400.66 239.306 400.937 239.188 401.141 238.981C401.345 238.774 401.46 238.495 401.46 238.205C401.46 237.915 401.345 237.636 401.141 237.429C400.937 237.222 400.66 237.104 400.37 237.1V237.1Z" fill="#3F3D56"/>
<path id="Vector_57" d="M179.44 270.273H174.194C172.604 270.273 171.314 271.563 171.314 273.153C171.314 274.744 172.604 276.033 174.194 276.033H179.44C181.031 276.033 182.32 274.744 182.32 273.153C182.32 271.563 181.031 270.273 179.44 270.273Z" fill="#E6E6E6"/>
<path id="Vector_58" d="M239.44 270.273H234.194C232.604 270.273 231.314 271.563 231.314 273.153C231.314 274.744 232.604 276.033 234.194 276.033H239.44C241.031 276.033 242.32 274.744 242.32 273.153C242.32 271.563 241.031 270.273 239.44 270.273Z" fill="#E6E6E6"/>
<path id="Vector_59" d="M256.44 270.273H251.194C249.604 270.273 248.314 271.563 248.314 273.153C248.314 274.744 249.604 276.033 251.194 276.033H256.44C258.031 276.033 259.32 274.744 259.32 273.153C259.32 271.563 258.031 270.273 256.44 270.273Z" fill="#E6E6E6"/>
<path id="Vector_60" d="M223.12 269.793H190.514C188.924 269.793 187.634 271.082 187.634 272.673C187.634 274.264 188.924 275.553 190.514 275.553H223.12C224.711 275.553 226 274.264 226 272.673C226 271.082 224.711 269.793 223.12 269.793Z" fill="#E6E6E6"/>
<path id="Vector_61" d="M303.12 269.793H270.514C268.924 269.793 267.634 271.082 267.634 272.673C267.634 274.264 268.924 275.553 270.514 275.553H303.12C304.711 275.553 306 274.264 306 272.673C306 271.082 304.711 269.793 303.12 269.793Z" fill="#E6E6E6"/>
<path id="Vector_62" d="M195.44 283.273H190.194C188.604 283.273 187.314 284.563 187.314 286.153C187.314 287.744 188.604 289.033 190.194 289.033H195.44C197.031 289.033 198.32 287.744 198.32 286.153C198.32 284.563 197.031 283.273 195.44 283.273Z" fill="#E6E6E6"/>
<path id="Vector_63" d="M255.44 283.273H250.194C248.604 283.273 247.314 284.563 247.314 286.153C247.314 287.744 248.604 289.033 250.194 289.033H255.44C257.031 289.033 258.32 287.744 258.32 286.153C258.32 284.563 257.031 283.273 255.44 283.273Z" fill="#E6E6E6"/>
<path id="Vector_64" d="M272.44 283.273H267.194C265.604 283.273 264.314 284.563 264.314 286.153C264.314 287.744 265.604 289.033 267.194 289.033H272.44C274.031 289.033 275.32 287.744 275.32 286.153C275.32 284.563 274.031 283.273 272.44 283.273Z" fill="#E6E6E6"/>
<path id="Vector_65" d="M239.12 282.793H206.514C204.924 282.793 203.634 284.082 203.634 285.673C203.634 287.264 204.924 288.553 206.514 288.553H239.12C240.711 288.553 242 287.264 242 285.673C242 284.082 240.711 282.793 239.12 282.793Z" fill="#E6E6E6"/>
<path id="Vector_66" d="M319.12 282.793H286.514C284.924 282.793 283.634 284.082 283.634 285.673C283.634 287.264 284.924 288.553 286.514 288.553H319.12C320.711 288.553 322 287.264 322 285.673C322 284.082 320.711 282.793 319.12 282.793Z" fill="#E6E6E6"/>
<path id="Vector_67" d="M211.44 296.273H206.194C204.604 296.273 203.314 297.563 203.314 299.153C203.314 300.744 204.604 302.033 206.194 302.033H211.44C213.031 302.033 214.32 300.744 214.32 299.153C214.32 297.563 213.031 296.273 211.44 296.273Z" fill="#E6E6E6"/>
<path id="Vector_68" d="M271.44 296.273H266.194C264.604 296.273 263.314 297.563 263.314 299.153C263.314 300.744 264.604 302.033 266.194 302.033H271.44C273.031 302.033 274.32 300.744 274.32 299.153C274.32 297.563 273.031 296.273 271.44 296.273Z" fill="#E6E6E6"/>
<path id="Vector_69" d="M288.44 296.273H283.194C281.604 296.273 280.314 297.563 280.314 299.153C280.314 300.744 281.604 302.033 283.194 302.033H288.44C290.031 302.033 291.32 300.744 291.32 299.153C291.32 297.563 290.031 296.273 288.44 296.273Z" fill="#E6E6E6"/>
<path id="Vector_70" d="M255.12 295.793H222.514C220.924 295.793 219.634 297.082 219.634 298.673C219.634 300.264 220.924 301.553 222.514 301.553H255.12C256.711 301.553 258 300.264 258 298.673C258 297.082 256.711 295.793 255.12 295.793Z" fill="#E6E6E6"/>
<path id="Vector_71" d="M335.12 295.793H302.514C300.924 295.793 299.634 297.082 299.634 298.673C299.634 300.264 300.924 301.553 302.514 301.553H335.12C336.711 301.553 338 300.264 338 298.673C338 297.082 336.711 295.793 335.12 295.793Z" fill="#E6E6E6"/>
<path id="Vector_72" d="M227.44 309.273H222.194C220.604 309.273 219.314 310.563 219.314 312.153C219.314 313.744 220.604 315.033 222.194 315.033H227.44C229.031 315.033 230.32 313.744 230.32 312.153C230.32 310.563 229.031 309.273 227.44 309.273Z" fill="#E6E6E6"/>
<path id="Vector_73" d="M287.44 309.273H282.194C280.604 309.273 279.314 310.563 279.314 312.153C279.314 313.744 280.604 315.033 282.194 315.033H287.44C289.031 315.033 290.32 313.744 290.32 312.153C290.32 310.563 289.031 309.273 287.44 309.273Z" fill="#E6E6E6"/>
<path id="Vector_74" d="M304.44 309.273H299.194C297.604 309.273 296.314 310.563 296.314 312.153C296.314 313.744 297.604 315.033 299.194 315.033H304.44C306.031 315.033 307.32 313.744 307.32 312.153C307.32 310.563 306.031 309.273 304.44 309.273Z" fill="#E6E6E6"/>
<path id="Vector_75" d="M271.12 308.793H238.514C236.924 308.793 235.634 310.082 235.634 311.673C235.634 313.264 236.924 314.553 238.514 314.553H271.12C272.711 314.553 274 313.264 274 311.673C274 310.082 272.711 308.793 271.12 308.793Z" fill="#E6E6E6"/>
<path id="Vector_76" d="M239.44 360.967H234.194C232.604 360.967 231.314 362.256 231.314 363.847C231.314 365.437 232.604 366.727 234.194 366.727H239.44C241.031 366.727 242.32 365.437 242.32 363.847C242.32 362.256 241.031 360.967 239.44 360.967Z" fill="#E6E6E6"/>
<path id="Vector_77" d="M256.44 360.967H251.194C249.604 360.967 248.314 362.256 248.314 363.847C248.314 365.437 249.604 366.727 251.194 366.727H256.44C258.031 366.727 259.32 365.437 259.32 363.847C259.32 362.256 258.031 360.967 256.44 360.967Z" fill="#E6E6E6"/>
<path id="Vector_78" d="M303.12 361.447H270.514C268.924 361.447 267.634 362.736 267.634 364.327C267.634 365.918 268.924 367.207 270.514 367.207H303.12C304.711 367.207 306 365.918 306 364.327C306 362.736 304.711 361.447 303.12 361.447Z" fill="#E6E6E6"/>
<path id="Vector_79" d="M179.44 360.967H174.194C172.604 360.967 171.314 362.256 171.314 363.847C171.314 365.437 172.604 366.727 174.194 366.727H179.44C181.031 366.727 182.32 365.437 182.32 363.847C182.32 362.256 181.031 360.967 179.44 360.967Z" fill="#E6E6E6"/>
<path id="Vector_80" d="M223.12 361.447H190.514C188.924 361.447 187.634 362.736 187.634 364.327C187.634 365.918 188.924 367.207 190.514 367.207H223.12C224.711 367.207 226 365.918 226 364.327C226 362.736 224.711 361.447 223.12 361.447Z" fill="#E6E6E6"/>
<path id="Vector_81" d="M195.44 347.967H190.194C188.604 347.967 187.314 349.256 187.314 350.847C187.314 352.437 188.604 353.727 190.194 353.727H195.44C197.031 353.727 198.32 352.437 198.32 350.847C198.32 349.256 197.031 347.967 195.44 347.967Z" fill="#E6E6E6"/>
<path id="Vector_82" d="M255.44 347.967H250.194C248.604 347.967 247.314 349.256 247.314 350.847C247.314 352.437 248.604 353.727 250.194 353.727H255.44C257.031 353.727 258.32 352.437 258.32 350.847C258.32 349.256 257.031 347.967 255.44 347.967Z" fill="#E6E6E6"/>
<path id="Vector_83" d="M272.44 347.967H267.194C265.604 347.967 264.314 349.256 264.314 350.847C264.314 352.437 265.604 353.727 267.194 353.727H272.44C274.031 353.727 275.32 352.437 275.32 350.847C275.32 349.256 274.031 347.967 272.44 347.967Z" fill="#E6E6E6"/>
<path id="Vector_84" d="M239.12 348.447H206.514C204.924 348.447 203.634 349.736 203.634 351.327C203.634 352.918 204.924 354.207 206.514 354.207H239.12C240.711 354.207 242 352.918 242 351.327C242 349.736 240.711 348.447 239.12 348.447Z" fill="#E6E6E6"/>
<path id="Vector_85" d="M211.44 334.967H206.194C204.604 334.967 203.314 336.256 203.314 337.847C203.314 339.437 204.604 340.727 206.194 340.727H211.44C213.031 340.727 214.32 339.437 214.32 337.847C214.32 336.256 213.031 334.967 211.44 334.967Z" fill="#E6E6E6"/>
<path id="Vector_86" d="M271.44 334.967H266.194C264.604 334.967 263.314 336.256 263.314 337.847C263.314 339.437 264.604 340.727 266.194 340.727H271.44C273.031 340.727 274.32 339.437 274.32 337.847C274.32 336.256 273.031 334.967 271.44 334.967Z" fill="#E6E6E6"/>
<path id="Vector_87" d="M288.44 334.967H283.194C281.604 334.967 280.314 336.256 280.314 337.847C280.314 339.437 281.604 340.727 283.194 340.727H288.44C290.031 340.727 291.32 339.437 291.32 337.847C291.32 336.256 290.031 334.967 288.44 334.967Z" fill="#E6E6E6"/>
<path id="Vector_88" d="M255.12 335.447H222.514C220.924 335.447 219.634 336.736 219.634 338.327C219.634 339.918 220.924 341.207 222.514 341.207H255.12C256.711 341.207 258 339.918 258 338.327C258 336.736 256.711 335.447 255.12 335.447Z" fill="#E6E6E6"/>
<path id="Vector_89" d="M227.44 321.967H222.194C220.604 321.967 219.314 323.256 219.314 324.847C219.314 326.437 220.604 327.727 222.194 327.727H227.44C229.031 327.727 230.32 326.437 230.32 324.847C230.32 323.256 229.031 321.967 227.44 321.967Z" fill="#E6E6E6"/>
<path id="Vector_90" d="M287.44 321.967H282.194C280.604 321.967 279.314 323.256 279.314 324.847C279.314 326.437 280.604 327.727 282.194 327.727H287.44C289.031 327.727 290.32 326.437 290.32 324.847C290.32 323.256 289.031 321.967 287.44 321.967Z" fill="#E6E6E6"/>
<path id="Vector_91" d="M304.44 321.967H299.194C297.604 321.967 296.314 323.256 296.314 324.847C296.314 326.437 297.604 327.727 299.194 327.727H304.44C306.031 327.727 307.32 326.437 307.32 324.847C307.32 323.256 306.031 321.967 304.44 321.967Z" fill="#E6E6E6"/>
<path id="Vector_92" d="M271.12 322.447H238.514C236.924 322.447 235.634 323.736 235.634 325.327C235.634 326.918 236.924 328.207 238.514 328.207H271.12C272.711 328.207 274 326.918 274 325.327C274 323.736 272.711 322.447 271.12 322.447Z" fill="#E6E6E6"/>
<g id="bras">
<path id="Vector_93" d="M153.49 447.807L123.712 462.696L146.31 533.505C147.933 538.59 150.842 543.169 154.755 546.799C158.669 550.429 163.454 552.985 168.646 554.222V554.222C175.048 555.746 181.77 555.192 187.836 552.639C193.902 550.086 198.997 545.668 202.383 540.025L262.308 437.311C266.555 430.233 267.866 421.775 265.961 413.744C264.056 405.713 259.086 398.745 252.113 394.329V394.329C248.362 391.954 244.154 390.395 239.761 389.753C235.368 389.112 230.89 389.403 226.617 390.607C222.344 391.812 218.373 393.902 214.961 396.742C211.55 399.583 208.775 403.11 206.816 407.094L170.24 485.03L153.49 447.807Z" fill="#3F3D56"/>
<path id="Vector_94" d="M131.156 468.28L153.49 457.113L134.879 406.862L129.974 381.52C129.336 378.228 127.846 375.16 125.652 372.624C123.458 370.088 120.636 368.172 117.47 367.068C114.303 365.964 110.903 365.71 107.607 366.333C104.312 366.955 101.238 368.43 98.6914 370.613V370.613C94.9183 373.847 92.5492 378.42 92.0841 383.368C91.6191 388.316 93.0944 393.251 96.1988 397.131L114.406 419.89L131.156 468.28Z" fill="#A0616A"/>
</g>
<path id="Vector_95" d="M419.81 548.69C419.2 549 418.58 549.31 417.97 549.61C402.17 557.51 389.53 562 372.24 566.92C370.78 550.62 369.37 521.97 368 504.21C367.64 499.6 367.28 495.73 366.93 493C366.842 491.549 366.545 490.117 366.05 488.75L366.11 493L366.26 504.21L367.13 568.32C345.623 574.011 323.529 577.195 301.29 577.81C300.13 577.84 298.99 577.86 297.89 577.88C297.5 577.89 297.12 577.9 296.74 577.9C295.49 577.91 294.25 577.92 293 577.92C269.564 577.937 246.213 575.107 223.46 569.49C223.95 553.36 224.44 525.03 224.91 504.21C225.01 500.14 225.1 496.35 225.2 493C225.39 485.84 225.59 480.68 225.78 478.95C225.612 479.257 225.481 479.582 225.39 479.92C224.464 484.232 223.832 488.602 223.5 493C223.15 496.35 222.8 500.14 222.45 504.21C220.59 525.84 218.65 555.25 216.65 567.72C204.746 564.47 193.064 560.452 181.68 555.69C175.68 553.19 169.787 550.493 164 547.6C165.1 540.4 166.25 532.33 167.43 523.96C168.35 517.47 169.3 510.8 170.27 504.21C171.77 494.03 173.31 484.05 174.87 475.26C177.15 462.42 179.49 452.1 181.81 447.36C184.01 442.86 186.21 438.42 188.34 434.17C189.08 432.68 189.82 431.21 190.54 429.78C190.71 429.44 190.88 429.11 191.05 428.78C192.58 425.77 194.06 422.89 195.47 420.19C196.68 417.88 197.83 415.7 198.92 413.69C201.56 408.81 203.8 404.92 205.46 402.46C212.4 391.933 222.732 384.096 234.74 380.25L235.04 380.17L235.25 380.26L255.7 373.98L258.69 373.06L260.7 372.44L267.78 367.05L271.63 364.12L275.24 361.37L282.3 356L326.01 358.69L334.52 379.18L353.58 386.15L353.91 386L354.2 385.88L354.5 385.96C366.506 389.809 376.837 397.646 383.78 408.17C384.72 409.58 385.86 411.44 387.15 413.69C388.25 415.6 389.45 417.78 390.75 420.19C392.6 423.62 394.62 427.49 396.76 431.68C397.23 432.6 397.71 433.54 398.19 434.49C399.08 436.25 399.983 438.047 400.9 439.88C403.03 444.13 405.23 448.57 407.43 453.08C409.34 456.99 411.27 465.03 413.17 475.26C414.74 483.76 416.3 493.78 417.81 504.21C419.79 517.73 417.68 533.92 419.47 546.36C419.58 547.15 419.7 547.92 419.81 548.69Z" fill="#3F3D56"/>
<path id="Vector_96" opacity="0.2" d="M206.32 475.296L214.817 442.504L222.32 470.8L206.32 475.296Z" fill="black"/>
<path id="Vector_97" d="M432.43 453.93C429.39 495.81 432.54 514.25 415.76 548.78C400.493 556.253 384.59 562.35 368.24 567C366.54 567.48 364.837 567.947 363.13 568.4C341.623 574.091 319.529 577.275 297.29 577.89C296.13 577.92 294.99 577.94 293.89 577.96C293.5 577.97 293.12 577.98 292.74 577.98C291.49 577.99 290.25 578 289 578C265.564 578.017 242.213 575.187 219.46 569.57C217.18 569.01 214.91 568.42 212.65 567.8C200.746 564.55 189.064 560.532 177.68 555.77C171.68 553.27 165.787 550.573 160 547.68C158.69 547.02 157.38 546.36 156.09 545.68C149.46 534.02 145.69 519.84 145.61 502.8C150.2 473.44 422.29 428.61 432.43 453.93Z" fill="#2C3E50"/>
<path id="Vector_98" opacity="0.2" d="M432.422 461.102C432.577 458.509 432.751 455.831 432.953 453.042C422.813 427.722 150.723 472.552 146.133 501.912C146.146 504.604 146.261 507.216 146.455 509.767C157.57 480.789 416.059 438.181 432.422 461.102Z" fill="black"/>
</g>
<g id="fum&#195;&#169;es">
<path id="smoke6" d="M115.035 202.339C118.598 203.973 121.728 207.016 124.027 211.083C126.327 215.151 127.693 220.061 127.954 225.191C128.215 230.322 127.358 235.443 125.492 239.908C123.627 244.372 120.835 247.979 117.472 250.272C114.108 252.565 110.323 253.442 106.596 252.791C102.868 252.14 99.365 249.991 96.5298 246.616C93.6946 243.24 91.6544 238.79 90.6673 233.827C89.6801 228.865 89.7903 223.613 90.984 218.736V218.736C92.5894 212.201 96.0233 206.805 100.532 203.731C105.041 200.657 110.257 200.156 115.035 202.339ZM103.53 249.345C106.759 250.826 110.237 250.963 113.524 249.738C116.81 248.514 119.758 245.983 121.993 242.466C124.229 238.948 125.652 234.603 126.083 229.979C126.514 225.355 125.934 220.659 124.415 216.487C122.896 212.314 120.507 208.851 117.551 206.537C114.594 204.222 111.203 203.159 107.805 203.483C104.407 203.807 101.155 205.502 98.4615 208.354C95.7676 211.207 93.7522 215.089 92.6703 219.509C91.225 225.437 91.5567 231.907 93.5925 237.5C95.6283 243.094 99.202 247.353 103.53 249.345V249.345Z" fill="#E6E6E6"/>
<path id="smoke7" d="M80.7411 175.798C83.8355 176.772 86.5529 178.586 88.5499 181.011C90.5469 183.436 91.7337 186.363 91.9602 189.422C92.1867 192.48 91.4427 195.534 89.8224 198.195C88.202 200.856 85.7781 203.007 82.8571 204.374C79.936 205.741 76.6491 206.263 73.4119 205.875C70.1748 205.487 67.1328 204.206 64.6706 202.194C62.2085 200.182 60.4367 197.528 59.5795 194.57C58.7222 191.612 58.8179 188.481 59.8545 185.574V185.574C61.2487 181.678 64.2308 178.461 68.1464 176.628C72.062 174.796 76.5915 174.497 80.7411 175.798ZM70.7495 203.821C73.5542 204.704 76.5746 204.785 79.4286 204.055C82.2827 203.325 84.8422 201.817 86.7836 199.72C88.725 197.623 89.961 195.033 90.3353 192.276C90.7096 189.519 90.2055 186.72 88.8866 184.232C87.5677 181.745 85.4933 179.681 82.9258 178.301C80.3582 176.921 77.4128 176.287 74.462 176.48C71.5112 176.673 68.6876 177.684 66.3481 179.384C64.0087 181.085 62.2585 183.399 61.3189 186.034C60.0638 189.568 60.3519 193.425 62.1198 196.76C63.8878 200.094 66.9912 202.634 70.7495 203.821V203.821Z" fill="#E6E6E6"/>
<path id="smoke5" d="M127.835 237.566C129.804 238.258 131.534 239.545 132.805 241.266C134.075 242.987 134.831 245.064 134.975 247.235C135.119 249.405 134.645 251.572 133.614 253.461C132.583 255.35 131.041 256.876 129.182 257.846C127.323 258.816 125.231 259.187 123.171 258.912C121.111 258.636 119.175 257.727 117.609 256.299C116.042 254.871 114.914 252.988 114.369 250.888C113.823 248.789 113.884 246.567 114.544 244.504V244.504C115.431 241.739 117.329 239.456 119.82 238.155C122.312 236.855 125.195 236.643 127.835 237.566ZM121.477 257.454C123.262 258.08 125.184 258.138 127 257.62C128.816 257.102 130.445 256.031 131.68 254.543C132.916 253.055 133.702 251.217 133.941 249.26C134.179 247.304 133.858 245.317 133.019 243.552C132.179 241.787 130.859 240.322 129.225 239.342C127.592 238.363 125.717 237.914 123.839 238.05C121.962 238.187 120.165 238.905 118.676 240.111C117.187 241.318 116.074 242.961 115.476 244.831C114.677 247.339 114.86 250.076 115.985 252.442C117.11 254.809 119.085 256.611 121.477 257.454V257.454Z" fill="#E6E6E6"/>
<path id="smoke4" d="M93.7411 261.798C96.8355 262.772 99.5529 264.586 101.55 267.011C103.547 269.436 104.734 272.363 104.96 275.422C105.187 278.48 104.443 281.534 102.822 284.195C101.202 286.856 98.7781 289.007 95.8571 290.374C92.936 291.741 89.6491 292.263 86.4119 291.875C83.1748 291.487 80.1328 290.206 77.6706 288.194C75.2085 286.182 73.4367 283.528 72.5795 280.57C71.7222 277.612 71.8179 274.481 72.8545 271.574V271.574C74.2487 267.678 77.2308 264.461 81.1464 262.628C85.062 260.796 89.5915 260.497 93.7411 261.798ZM83.7495 289.821C86.5542 290.704 89.5746 290.785 92.4286 290.055C95.2827 289.325 97.8422 287.817 99.7836 285.72C101.725 283.623 102.961 281.033 103.335 278.276C103.71 275.519 103.205 272.72 101.887 270.232C100.568 267.745 98.4933 265.681 95.9258 264.301C93.3582 262.921 90.4128 262.287 87.462 262.48C84.5112 262.673 81.6876 263.684 79.3481 265.384C77.0087 267.085 75.2585 269.399 74.3189 272.034C73.0638 275.568 73.3519 279.425 75.1198 282.76C76.8878 286.094 79.9912 288.634 83.7495 289.821V289.821Z" fill="#E6E6E6"/>
<path id="smoke3" d="M111.153 282.515C113.31 283.143 115.204 284.314 116.595 285.878C117.987 287.443 118.814 289.331 118.972 291.304C119.13 293.278 118.612 295.247 117.482 296.964C116.353 298.682 114.664 300.069 112.628 300.951C110.592 301.833 108.301 302.17 106.045 301.92C103.788 301.669 101.668 300.843 99.9523 299.544C98.2362 298.246 97.0014 296.534 96.4039 294.626C95.8064 292.717 95.8731 290.697 96.5956 288.822V288.822C97.5673 286.308 99.6457 284.233 102.375 283.05C105.104 281.868 108.261 281.676 111.153 282.515ZM104.189 300.594C106.144 301.164 108.249 301.216 110.238 300.745C112.227 300.274 114.011 299.301 115.364 297.948C116.717 296.596 117.579 294.924 117.84 293.146C118.101 291.367 117.749 289.561 116.83 287.956C115.911 286.352 114.465 285.02 112.676 284.13C110.886 283.239 108.833 282.831 106.777 282.955C104.72 283.079 102.752 283.731 101.121 284.829C99.4909 285.926 98.2711 287.419 97.6162 289.119C96.7415 291.399 96.9422 293.887 98.1744 296.039C99.4066 298.19 101.57 299.828 104.189 300.594V300.594Z" fill="#E6E6E6"/>
<path id="smoke2" d="M101.951 293.014C105.645 294.251 108.889 296.556 111.272 299.637C113.656 302.718 115.073 306.437 115.343 310.323C115.613 314.208 114.725 318.087 112.791 321.469C110.857 324.85 107.964 327.582 104.477 329.319C100.99 331.055 97.0669 331.719 93.2029 331.226C89.3388 330.733 85.7078 329.106 82.7688 326.549C79.8298 323.993 77.715 320.622 76.6917 316.863C75.6684 313.105 75.7827 309.127 77.02 305.433V305.433C78.6842 300.484 82.2437 296.397 86.9177 294.069C91.5916 291.74 96.9982 291.361 101.951 293.014ZM90.0248 328.617C93.3727 329.738 96.978 329.842 100.385 328.914C103.792 327.987 106.847 326.07 109.164 323.406C111.481 320.742 112.957 317.451 113.404 313.948C113.85 310.446 113.249 306.89 111.674 303.73C110.1 300.569 107.624 297.947 104.559 296.194C101.494 294.44 97.9785 293.636 94.4563 293.881C90.9341 294.126 87.5636 295.41 84.7711 297.57C81.9786 299.731 79.8895 302.671 78.768 306.019C77.2699 310.508 77.6137 315.409 79.724 319.645C81.8343 323.882 85.5388 327.108 90.0248 328.617V328.617Z" fill="#E6E6E6"/>
<path id="smoke1" d="M128.541 318.257C130.041 318.572 131.359 319.157 132.327 319.939C133.295 320.721 133.871 321.666 133.981 322.652C134.091 323.639 133.73 324.624 132.944 325.482C132.159 326.341 130.983 327.034 129.567 327.475C128.151 327.916 126.557 328.085 124.988 327.96C123.418 327.835 121.943 327.421 120.749 326.772C119.556 326.123 118.697 325.267 118.281 324.313C117.865 323.359 117.912 322.349 118.414 321.411V321.411C119.09 320.154 120.536 319.116 122.435 318.525C124.333 317.934 126.529 317.838 128.541 318.257ZM123.697 327.297C125.057 327.582 126.521 327.608 127.905 327.373C129.289 327.137 130.53 326.651 131.471 325.974C132.412 325.298 133.011 324.462 133.193 323.573C133.374 322.684 133.13 321.781 132.49 320.978C131.851 320.176 130.845 319.51 129.6 319.065C128.355 318.62 126.927 318.415 125.497 318.477C124.066 318.54 122.697 318.866 121.563 319.414C120.428 319.963 119.58 320.709 119.124 321.559C118.516 322.699 118.655 323.944 119.513 325.019C120.37 326.095 121.875 326.914 123.697 327.297V327.297Z" fill="#E6E6E6"/>
</g>
<g id="tete">
<g id="tasse">
<path id="Vector_99" d="M154.89 342.152C154.947 341.245 154.836 340.335 154.563 339.482C154.291 338.629 153.863 337.854 153.309 337.208C152.756 336.562 152.089 336.061 151.353 335.738C150.618 335.415 149.831 335.278 149.046 335.336C148.753 335.349 148.462 335.391 148.176 335.462L113.764 344.444C112.995 344.66 112.274 345.059 111.647 345.616C111.019 346.173 110.5 346.876 110.122 347.679C109.617 347.701 109.116 347.786 108.627 347.931C107.556 348.211 106.543 348.732 105.647 349.465C104.751 350.198 103.988 351.127 103.402 352.2C102.817 353.274 102.42 354.47 102.234 355.72C102.049 356.971 102.078 358.251 102.321 359.489C102.563 360.726 103.015 361.896 103.649 362.932C104.283 363.968 105.087 364.849 106.016 365.526C107.892 366.892 110.161 367.342 112.324 366.775C113.555 366.445 114.706 365.801 115.694 364.891L127.355 402.831C127.937 404.02 128.837 404.96 129.92 405.509C131.003 406.058 132.21 406.187 133.362 405.878L155.733 400.036C156.875 399.727 157.904 399.007 158.671 397.98C159.438 396.953 159.903 395.672 160 394.32L154.89 342.152ZM111.807 364.074C110.263 364.477 108.643 364.155 107.303 363.18C105.963 362.205 105.013 360.656 104.66 358.872C104.308 357.088 104.582 355.216 105.422 353.665C106.262 352.115 107.601 351.013 109.143 350.6C109.252 350.569 109.361 350.6 109.469 350.569C109.461 351.713 109.714 352.84 110.203 353.835L114.471 362.441C113.728 363.255 112.807 363.82 111.807 364.074Z" fill="#2F2E41"/>
<path id="Vector_100" d="M144.317 376.617C144.231 376.617 144.146 376.587 144.075 376.532C144.003 376.476 143.948 376.397 143.916 376.305C143.883 376.212 143.876 376.111 143.893 376.014C143.911 375.916 143.954 375.827 144.016 375.758L147.819 371.509L142.71 369.076C142.658 369.051 142.61 369.015 142.569 368.968C142.529 368.922 142.497 368.867 142.475 368.806C142.453 368.746 142.442 368.681 142.442 368.615C142.442 368.549 142.453 368.484 142.474 368.423C142.496 368.363 142.528 368.307 142.568 368.261C142.608 368.214 142.656 368.178 142.708 368.152C142.761 368.127 142.817 368.114 142.874 368.114C142.931 368.114 142.987 368.127 143.04 368.152L148.76 370.876C148.826 370.908 148.885 370.958 148.93 371.022C148.976 371.086 149.007 371.163 149.02 371.244C149.034 371.326 149.029 371.41 149.008 371.489C148.986 371.568 148.948 371.64 148.896 371.697L144.618 376.477C144.537 376.567 144.429 376.617 144.317 376.617V376.617Z" fill="#6C63FF"/>
<path id="Vector_101" d="M137.785 381.5C137.742 381.5 137.699 381.493 137.658 381.478C137.604 381.458 137.553 381.427 137.51 381.385C137.466 381.343 137.429 381.292 137.403 381.234C137.376 381.176 137.36 381.112 137.354 381.047C137.349 380.981 137.355 380.915 137.372 380.853L141.365 365.853C141.4 365.726 141.476 365.621 141.577 365.559C141.679 365.497 141.797 365.485 141.906 365.524C142.016 365.563 142.107 365.65 142.161 365.767C142.215 365.884 142.226 366.021 142.193 366.148L138.199 381.148C138.172 381.25 138.117 381.339 138.042 381.402C137.968 381.466 137.878 381.5 137.785 381.5V381.5Z" fill="#6C63FF"/>
<path id="Vector_102" d="M136.604 378.441C136.556 378.441 136.509 378.432 136.464 378.414L130.837 376.176C130.769 376.149 130.708 376.103 130.659 376.042C130.61 375.981 130.576 375.907 130.558 375.826C130.54 375.746 130.54 375.661 130.558 375.581C130.576 375.5 130.61 375.426 130.659 375.365L134.844 370.101C134.882 370.052 134.928 370.012 134.98 369.985C135.032 369.957 135.087 369.941 135.144 369.938C135.201 369.935 135.258 369.945 135.312 369.967C135.365 369.99 135.414 370.024 135.456 370.069C135.498 370.113 135.532 370.167 135.556 370.227C135.58 370.286 135.594 370.351 135.596 370.417C135.598 370.482 135.589 370.548 135.57 370.61C135.55 370.671 135.52 370.728 135.481 370.776L131.743 375.479L136.745 377.469C136.842 377.507 136.924 377.584 136.976 377.686C137.028 377.787 137.048 377.907 137.031 378.024C137.014 378.141 136.962 378.247 136.884 378.323C136.806 378.4 136.707 378.441 136.604 378.441V378.441Z" fill="#6C63FF"/>
<path id="Vector_103" d="M149.046 335.336C149.372 340.361 141.924 346.14 131.949 348.433C122.788 350.6 114.58 349.093 112.269 345.135C112.734 344.817 113.238 344.584 113.764 344.444L148.176 335.462C148.462 335.391 148.753 335.349 149.046 335.336V335.336Z" fill="#3F3D56"/>
</g>
<path id="Vector_104" d="M295.616 343.828C323.692 343.828 346.452 321.067 346.452 292.991C346.452 264.915 323.692 242.155 295.616 242.155C267.539 242.155 244.779 264.915 244.779 292.991C244.779 321.067 267.539 343.828 295.616 343.828Z" fill="#A0616A"/>
<path id="Vector_105" d="M379.451 225.623C378.446 223.277 377.109 221.088 375.481 219.123C367.761 209.693 353.721 205.543 339.311 216.703C336.537 216.083 333.645 216.249 330.961 217.183C329.693 217.642 328.505 218.296 327.441 219.123C325.259 220.825 323.556 223.065 322.501 225.623C321.936 226.974 321.566 228.398 321.401 229.853C317.838 228.002 314.068 226.582 310.171 225.623C300.606 223.244 290.605 223.244 281.041 225.623C277.976 226.398 275.024 227.568 272.261 229.103C267.581 231.803 264.891 235.213 264.411 239.003C257.661 239.383 250.641 242.933 245.411 248.753C244.821 249.403 244.251 250.083 243.721 250.783C239.322 256.538 236.959 263.59 237.001 270.833V272.103H238.271C241.75 272.1 245.197 272.772 248.421 274.083C250.509 274.922 252.487 276.013 254.311 277.333C255.503 278.179 256.63 279.115 257.681 280.133C260.116 282.491 262.18 285.205 263.801 288.183C267.955 295.708 269.396 304.432 267.881 312.893C267.533 314.851 267.025 316.778 266.361 318.653C265.416 321.328 264.171 323.888 262.651 326.283C262.591 326.373 262.541 326.463 262.481 326.553C261.811 327.623 261.171 328.713 260.571 329.813C260.121 330.633 259.701 331.473 259.311 332.313C258.171 334.651 257.208 337.071 256.431 339.553C255.039 343.943 254.219 348.494 253.991 353.093C253.921 354.313 253.901 355.533 253.941 356.753C254 359.898 254.345 363.031 254.971 366.113C255.061 366.533 255.151 366.943 255.241 367.363L255.971 370.553L257.701 378.163L258.901 383.403L260.011 388.263L261.651 385.913C262.211 385.113 263.621 382.653 265.511 379.173C266.761 376.903 268.211 374.193 269.781 371.233C271.971 367.083 274.371 362.453 276.72 357.833C277.67 355.963 278.611 354.103 279.521 352.283C281.241 348.833 282.861 345.503 284.251 342.543C285.531 339.813 286.621 337.393 287.431 335.453C287.681 336.723 287.891 338.013 288.051 339.313C288.231 340.633 288.361 341.973 288.431 343.313C288.451 343.513 288.461 343.723 288.471 343.923L288.511 344.743L288.521 344.983L289.581 345.123C295.694 345.778 301.858 345.825 307.981 345.263H307.991C316.102 344.652 324.06 342.724 331.551 339.553C335.805 337.707 339.778 335.27 343.351 332.313C345.02 330.931 346.578 329.42 348.011 327.793C348.371 327.383 348.721 326.973 349.061 326.553C351.04 324.121 352.734 321.47 354.111 318.653C355.032 316.794 355.815 314.868 356.451 312.893C360.291 301.263 360.071 286.753 355.791 269.513C356.947 269.29 358.054 268.864 359.061 268.253C362.201 266.363 364.381 262.613 365.061 258.033L366.141 258.323C369.969 256.54 373.38 253.971 376.151 250.783C376.699 250.134 377.213 249.456 377.691 248.753C382.581 241.553 382.621 232.913 379.451 225.623Z" fill="#2F2E41"/>
</g>
</g>
<defs>
<linearGradient id="paint0_linear_2:169" x1="155" y1="34" x2="462" y2="522" gradientUnits="userSpaceOnUse">
<stop stop-color="#2B589D"/>
<stop offset="1" stop-color="#95DFFF"/>
</linearGradient>
<clipPath id="clip0_2:169">
<rect width="578" height="578" fill="white"/>
</clipPath>
</defs>
</svg>
